<?xml version="1.0" encoding="UTF-8"?>
<svg id="Calque_1" data-name="Calque 1" xmlns="http://www.w3.org/2000/svg" viewBox="0 0 1069.89 480.52">
  <text transform="translate(.5 37.6)" style="fill: none; font-family: Gabarito-Regular, Gabarito; font-size: 35.33px; font-variation-settings: &apos;wght&apos; 400; stroke: #c3e7b0; stroke-miterlimit: 10;"><tspan x="0" y="0">A</tspan></text>
  <text transform="translate(606.39 347.92)" style="font-family: MyriadPro-Regular, &apos;Myriad Pro&apos;; font-size: 12px;"><tspan x="0" y="0">.p</tspan><tspan x="9.31" y="0" style="letter-spacing: -.01em;">r</tspan><tspan x="13.12" y="0">oje</tspan><tspan x="28.63" y="0" style="letter-spacing: .01em;">c</tspan><tspan x="34.16" y="0">t .but</tspan><tspan x="60.57" y="0" style="letter-spacing: 0em;">t</tspan><tspan x="64.47" y="0">ons but</tspan><tspan x="102.43" y="0" style="letter-spacing: 0em;">t</tspan><tspan x="106.33" y="0" xml:space="preserve">on {  </tspan><tspan x="0" y="14.4" xml:space="preserve">  t</tspan><tspan x="9.06" y="14.4" style="letter-spacing: 0em;">r</tspan><tspan x="12.92" y="14.4">ansition</tspan><tspan x="52.96" y="14.4" style="letter-spacing: .02em;">-</tspan><tspan x="56.86" y="14.4">du</tspan><tspan x="70.23" y="14.4" style="letter-spacing: 0em;">r</tspan><tspan x="74.1" y="14.4" style="letter-spacing: 0em;">a</tspan><tspan x="79.83" y="14.4">tion: 0.5s;</tspan><tspan x="0" y="28.8" xml:space="preserve">  </tspan><tspan x="0" y="43.2">}</tspan><tspan x="0" y="72">.p</tspan><tspan x="9.31" y="72" style="letter-spacing: -.01em;">r</tspan><tspan x="13.12" y="72">oje</tspan><tspan x="28.63" y="72" style="letter-spacing: .01em;">c</tspan><tspan x="34.16" y="72">t .but</tspan><tspan x="60.57" y="72" style="letter-spacing: 0em;">t</tspan><tspan x="64.47" y="72">ons but</tspan><tspan x="102.43" y="72" style="letter-spacing: 0em;">t</tspan><tspan x="106.33" y="72">on:h</tspan><tspan x="128.72" y="72" style="letter-spacing: 0em;">o</tspan><tspan x="135.23" y="72" style="letter-spacing: 0em;">v</tspan><tspan x="140.88" y="72">er {</tspan><tspan x="0" y="86.4" xml:space="preserve">  back</tspan><tspan x="28.7" y="86.4" style="letter-spacing: 0em;">g</tspan><tspan x="35.34" y="86.4" style="letter-spacing: -.01em;">r</tspan><tspan x="39.14" y="86.4">ound</tspan><tspan x="65.77" y="86.4" style="letter-spacing: .02em;">-</tspan><tspan x="69.67" y="86.4" style="letter-spacing: 0em;">c</tspan><tspan x="74.97" y="86.4">olo</tspan><tspan x="90.98" y="86.4" style="letter-spacing: 0em;">r</tspan><tspan x="95.01" y="86.4">: hsl(258, 58%, 72%, 20%);</tspan><tspan x="0" y="100.8" xml:space="preserve">  bo</tspan><tspan x="18.5" y="100.8" style="letter-spacing: -.01em;">r</tspan><tspan x="22.31" y="100.8">de</tspan><tspan x="35.09" y="100.8" style="letter-spacing: 0em;">r</tspan><tspan x="38.95" y="100.8" style="letter-spacing: 0em;">-</tspan><tspan x="42.64" y="100.8" style="letter-spacing: 0em;">r</tspan><tspan x="46.5" y="100.8">adius: 10</tspan><tspan x="90.56" y="100.8" style="letter-spacing: -.01em;">p</tspan><tspan x="97.22" y="100.8">x;</tspan><tspan x="0" y="129.6">}</tspan></text>
  <g style="opacity: .57;">
    <path d="m21.3,1.43c2.52-.53,6.5-.93,10.54-.93,5.77,0,9.48.99,12.27,3.25,2.32,1.72,3.71,4.38,3.71,7.89,0,4.31-2.85,8.09-7.56,9.81v.13c4.24,1.06,9.22,4.58,9.22,11.21,0,3.85-1.53,6.76-3.78,8.95-3.12,2.85-8.16,4.18-15.45,4.18-3.98,0-7.02-.26-8.95-.53V1.43Zm5.77,18.3h5.24c6.1,0,9.68-3.18,9.68-7.49,0-5.24-3.98-7.29-9.81-7.29-2.66,0-4.18.2-5.11.4v14.39Zm0,21.42c1.13.2,2.79.26,4.84.26,5.97,0,11.47-2.19,11.47-8.69,0-6.1-5.24-8.62-11.54-8.62h-4.77v17.04Z" style="fill: none; stroke: #a88fe1; stroke-miterlimit: 10;"/>
  </g>
</svg>